<svg width="112" height="18" viewBox="0 0 112 18" fill="none" xmlns="http://www.w3.org/2000/svg">
<rect width="110.922" height="17" transform="translate(0.6875 0.1875)" fill="black"/>
<path d="M8.8235 8.8915C8.8235 9.5875 8.7355 10.2195 8.5595 10.7875C8.3835 11.3555 8.1235 11.8355 7.7795 12.2275C7.4435 12.6195 7.0195 12.9075 6.5075 13.0915L8.4395 15.2275H6.9275L5.3675 13.2955C5.3275 13.2955 5.2835 13.2955 5.2355 13.2955C5.1875 13.3035 5.1435 13.3075 5.1035 13.3075C4.4715 13.3075 3.9195 13.2035 3.4475 12.9955C2.9835 12.7795 2.5955 12.4795 2.2835 12.0955C1.9795 11.7035 1.7515 11.2355 1.5995 10.6915C1.4475 10.1475 1.3715 9.5435 1.3715 8.8795C1.3715 7.9995 1.5075 7.2315 1.7795 6.5755C2.0515 5.9195 2.4635 5.4075 3.0155 5.0395C3.5755 4.6715 4.2755 4.4875 5.1155 4.4875C5.9235 4.4875 6.6035 4.6715 7.1555 5.0395C7.7075 5.3995 8.1235 5.9115 8.4035 6.5755C8.6835 7.2315 8.8235 8.0035 8.8235 8.8915ZM2.4995 8.8915C2.4995 9.6115 2.5915 10.2315 2.7755 10.7515C2.9595 11.2715 3.2435 11.6715 3.6275 11.9515C4.0195 12.2315 4.5115 12.3715 5.1035 12.3715C5.7035 12.3715 6.1955 12.2315 6.5795 11.9515C6.9635 11.6715 7.2435 11.2715 7.4195 10.7515C7.6035 10.2315 7.6955 9.6115 7.6955 8.8915C7.6955 7.8115 7.4875 6.9675 7.0715 6.3595C6.6635 5.7435 6.0115 5.4355 5.1155 5.4355C4.5155 5.4355 4.0195 5.5755 3.6275 5.8555C3.2435 6.1275 2.9595 6.5235 2.7755 7.0435C2.5915 7.5555 2.4995 8.1715 2.4995 8.8915ZM17.6477 8.8915C17.6477 9.5555 17.5677 10.1595 17.4077 10.7035C17.2477 11.2395 17.0117 11.7035 16.6997 12.0955C16.3877 12.4875 15.9997 12.7875 15.5357 12.9955C15.0717 13.2035 14.5357 13.3075 13.9277 13.3075C13.2957 13.3075 12.7437 13.2035 12.2717 12.9955C11.8077 12.7795 11.4197 12.4795 11.1077 12.0955C10.8037 11.7035 10.5757 11.2355 10.4237 10.6915C10.2717 10.1475 10.1957 9.5435 10.1957 8.8795C10.1957 7.9995 10.3317 7.2315 10.6037 6.5755C10.8757 5.9195 11.2877 5.4075 11.8397 5.0395C12.3997 4.6715 13.0997 4.4875 13.9397 4.4875C14.7477 4.4875 15.4277 4.6715 15.9797 5.0395C16.5317 5.3995 16.9477 5.9115 17.2277 6.5755C17.5077 7.2315 17.6477 8.0035 17.6477 8.8915ZM11.3237 8.8915C11.3237 9.6115 11.4157 10.2315 11.5997 10.7515C11.7837 11.2715 12.0677 11.6715 12.4517 11.9515C12.8437 12.2315 13.3357 12.3715 13.9277 12.3715C14.5277 12.3715 15.0197 12.2315 15.4037 11.9515C15.7877 11.6715 16.0677 11.2715 16.2437 10.7515C16.4277 10.2315 16.5197 9.6115 16.5197 8.8915C16.5197 7.8115 16.3117 6.9675 15.8957 6.3595C15.4877 5.7435 14.8357 5.4355 13.9397 5.4355C13.3397 5.4355 12.8437 5.5755 12.4517 5.8555C12.0677 6.1275 11.7837 6.5235 11.5997 7.0435C11.4157 7.5555 11.3237 8.1715 11.3237 8.8915ZM25.8959 8.8195C25.8959 9.7795 25.7279 10.5835 25.3919 11.2315C25.0559 11.8795 24.5719 12.3675 23.9399 12.6955C23.3159 13.0235 22.5599 13.1875 21.6719 13.1875H19.4279V4.6195H21.9119C22.7279 4.6195 23.4319 4.7795 24.0239 5.0995C24.6239 5.4195 25.0839 5.8915 25.4039 6.5155C25.7319 7.1315 25.8959 7.8995 25.8959 8.8195ZM24.7679 8.8555C24.7679 8.0955 24.6519 7.4715 24.4199 6.9835C24.1879 6.4955 23.8479 6.1355 23.3999 5.9035C22.9599 5.6635 22.4199 5.5435 21.7799 5.5435H20.4959V12.2635H21.5639C22.6359 12.2635 23.4359 11.9795 23.9639 11.4115C24.4999 10.8355 24.7679 9.9835 24.7679 8.8555ZM32.1782 13.1875H27.6662V4.6195H32.1782V5.5675H28.7342V8.2435H31.9742V9.1795H28.7342V12.2395H32.1782V13.1875ZM39.1932 13.1875H36.2292V12.5635L37.1772 12.3355V5.4835L36.2292 5.2435V4.6195H39.1932V5.2435L38.2452 5.4835V12.3355L39.1932 12.5635V13.1875ZM47.1883 13.1875H45.9283L41.6803 6.0715H41.6323C41.6403 6.2155 41.6483 6.3755 41.6563 6.5515C41.6723 6.7275 41.6843 6.9195 41.6923 7.1275C41.7003 7.3275 41.7083 7.5355 41.7163 7.7515C41.7243 7.9675 41.7283 8.1835 41.7283 8.3995V13.1875H40.7443V4.6195H41.9923L46.2283 11.7115H46.2763C46.2683 11.6155 46.2603 11.4835 46.2523 11.3155C46.2443 11.1395 46.2363 10.9475 46.2283 10.7395C46.2203 10.5235 46.2123 10.3035 46.2043 10.0795C46.1963 9.8555 46.1923 9.6475 46.1923 9.4555V4.6195H47.1883V13.1875ZM51.9613 13.1875H50.8933V5.5675H48.3973V4.6195H54.4333V5.5675H51.9613V13.1875ZM60.1743 13.1875H55.6623V4.6195H60.1743V5.5675H56.7303V8.2435H59.9703V9.1795H56.7303V12.2395H60.1743V13.1875ZM64.1756 4.6195C64.8476 4.6195 65.3996 4.7115 65.8316 4.8955C66.2716 5.0715 66.5956 5.3395 66.8036 5.6995C67.0196 6.0595 67.1276 6.5115 67.1276 7.0555C67.1276 7.5115 67.0476 7.8915 66.8876 8.1955C66.7356 8.4995 66.5356 8.7435 66.2876 8.9275C66.0476 9.1035 65.7916 9.2435 65.5196 9.3475L67.7516 13.1875H66.5036L64.5596 9.6475H63.0116V13.1875H61.9436V4.6195H64.1756ZM64.1156 5.5555H63.0116V8.7355H64.1636C64.5956 8.7355 64.9476 8.6755 65.2196 8.5555C65.4996 8.4275 65.7036 8.2435 65.8316 8.0035C65.9596 7.7635 66.0236 7.4635 66.0236 7.1035C66.0236 6.7275 65.9556 6.4275 65.8196 6.2035C65.6836 5.9795 65.4716 5.8155 65.1836 5.7115C64.9036 5.6075 64.5476 5.5555 64.1156 5.5555ZM74.0383 13.1875L73.1023 10.5355H69.9223L68.9983 13.1875H67.9062L71.0263 4.5835H72.0343L75.1423 13.1875H74.0383ZM71.9023 6.9835C71.8863 6.9195 71.8503 6.8035 71.7943 6.6355C71.7463 6.4675 71.6943 6.2955 71.6383 6.1195C71.5903 5.9355 71.5503 5.7955 71.5183 5.6995C71.4783 5.8595 71.4343 6.0235 71.3863 6.1915C71.3463 6.3515 71.3063 6.4995 71.2663 6.6355C71.2263 6.7715 71.1903 6.8875 71.1583 6.9835L70.2703 9.5755H72.7903L71.9023 6.9835ZM79.4618 5.4475C79.0378 5.4475 78.6578 5.5275 78.3218 5.6875C77.9858 5.8395 77.6978 6.0675 77.4578 6.3715C77.2258 6.6675 77.0458 7.0315 76.9178 7.4635C76.7978 7.8875 76.7378 8.3675 76.7378 8.9035C76.7378 9.6075 76.8378 10.2195 77.0378 10.7395C77.2378 11.2595 77.5378 11.6595 77.9378 11.9395C78.3458 12.2195 78.8498 12.3595 79.4498 12.3595C79.8018 12.3595 80.1338 12.3275 80.4458 12.2635C80.7658 12.1995 81.0818 12.1195 81.3938 12.0235V12.9595C81.0898 13.0795 80.7778 13.1675 80.4578 13.2235C80.1378 13.2795 79.7538 13.3075 79.3058 13.3075C78.4818 13.3075 77.7938 13.1275 77.2418 12.7675C76.6978 12.4075 76.2898 11.8955 76.0178 11.2315C75.7458 10.5675 75.6098 9.7875 75.6098 8.8915C75.6098 8.2435 75.6938 7.6515 75.8618 7.1155C76.0298 6.5795 76.2778 6.1155 76.6058 5.7235C76.9338 5.3315 77.3378 5.0315 77.8178 4.8235C78.2978 4.6075 78.8498 4.4995 79.4738 4.4995C79.8818 4.4995 80.2778 4.5435 80.6618 4.6315C81.0458 4.7195 81.3938 4.8435 81.7058 5.0035L81.2858 5.9155C81.0378 5.7955 80.7578 5.6875 80.4458 5.5915C80.1418 5.4955 79.8138 5.4475 79.4618 5.4475ZM85.7348 13.1875H84.6668V5.5675H82.1708V4.6195H88.2068V5.5675H85.7348V13.1875ZM91.7518 13.1875H88.7878V12.5635L89.7358 12.3355V5.4835L88.7878 5.2435V4.6195H91.7518V5.2435L90.8038 5.4835V12.3355L91.7518 12.5635V13.1875ZM99.0269 4.6195L96.1589 13.1875H95.0789L92.2109 4.6195H93.3269L95.1149 10.1155C95.1949 10.3475 95.2629 10.5715 95.3189 10.7875C95.3829 11.0035 95.4389 11.2115 95.4869 11.4115C95.5429 11.6035 95.5869 11.7955 95.6189 11.9875C95.6509 11.7955 95.6909 11.5995 95.7389 11.3995C95.7869 11.1995 95.8429 10.9915 95.9069 10.7755C95.9789 10.5595 96.0509 10.3315 96.1229 10.0915L97.8989 4.6195H99.0269ZM104.635 13.1875H100.123V4.6195H104.635V5.5675H101.191V8.2435H104.431V9.1795H101.191V12.2395H104.635V13.1875Z" fill="black"/>
</svg>
